<svg style="height: 512px; width: 512px;" xmlns="http://www.w3.org/2000/svg" viewBox="0 0 512 512"><defs><radialGradient id="gradient-2"><stop offset="0%" stop-color="#ffffff" stop-opacity="1"></stop><stop offset="100%" stop-color="#000000" stop-opacity="1"></stop></radialGradient><radialGradient id="gradient-3"><stop offset="0%" stop-color="#ffffff" stop-opacity="1"></stop><stop offset="100%" stop-color="#000000" stop-opacity="1"></stop></radialGradient><radialGradient id="gradient-4"><stop offset="0%" stop-color="#ffffff" stop-opacity="1"></stop><stop offset="100%" stop-color="#000000" stop-opacity="1"></stop></radialGradient><radialGradient id="gradient-5"><stop offset="0%" stop-color="#ffffff" stop-opacity="1"></stop><stop offset="100%" stop-color="#000000" stop-opacity="1"></stop></radialGradient><radialGradient id="gradient-6"><stop offset="0%" stop-color="#ffffff" stop-opacity="1"></stop><stop offset="100%" stop-color="#000000" stop-opacity="1"></stop></radialGradient><radialGradient id="gradient-7"><stop offset="0%" stop-color="#ffffff" stop-opacity="1"></stop><stop offset="100%" stop-color="#000000" stop-opacity="1"></stop></radialGradient><radialGradient id="gradient-8"><stop offset="0%" stop-color="#ffffff" stop-opacity="1"></stop><stop offset="100%" stop-color="#000000" stop-opacity="1"></stop></radialGradient><radialGradient id="gradient-9"><stop offset="0%" stop-color="#ffffff" stop-opacity="1"></stop><stop offset="100%" stop-color="#000000" stop-opacity="1"></stop></radialGradient><radialGradient id="gradient-10"><stop offset="0%" stop-color="#ffffff" stop-opacity="1"></stop><stop offset="100%" stop-color="#000000" stop-opacity="1"></stop></radialGradient></defs><circle cx="256" cy="256" r="256" fill="#292927" fill-opacity="1"></circle><g class="" style="touch-action: none;" transform="translate(-3,4)"><path d="M304 64c-23.723 1.039-64 32-96 48-32-10.667-79.124-37.34-96-32-22.196 7.024-47.374 44.154-71.533 71h435.719C467.4 130.604 444.747 80.887 432 80c-15.998-1.113-80 48-80 48-16-21.333-36.57-64.5-48-64zM27.133 169l44.144 206H119V169H27.133zM137 169v14h46v-14h-46zm64 0v206h239.725l44.142-206H201zm-64 32v14h46v-14h-46zm0 32v14h46v-14h-46zm0 32v14h46v-14h-46zm0 32v14h46v-14h-46zm0 32v14h46v-14h-46zm0 32v14h46v-14h-46zM25 393v30h462v-30H25zm11.822 48C34.387 445.436 33 450.543 33 456c0 17.227 13.773 31 31 31s31-13.773 31-31c0-5.457-1.387-10.564-3.822-15H36.822zm80 0c-2.435 4.436-3.822 9.543-3.822 15 0 17.227 13.773 31 31 31s31-13.773 31-31c0-5.457-1.387-10.564-3.822-15h-54.356zm81.74 0l15 30h84.875l15-30H198.563zm142.26 0c-2.435 4.436-3.822 9.543-3.822 15 0 17.227 13.773 31 31 31s31-13.773 31-31c0-5.457-1.387-10.564-3.822-15h-54.356zm80 0c-2.435 4.436-3.822 9.543-3.822 15 0 17.227 13.773 31 31 31s31-13.773 31-31c0-5.457-1.387-10.564-3.822-15h-54.356z" fill="#fff" fill-opacity="1" transform="translate(76.8, 76.8) scale(0.7, 0.7) rotate(0, 256, 256)"></path></g></svg>