<svg style="height: 512px; width: 512px;" xmlns="http://www.w3.org/2000/svg" viewBox="0 0 512 512"><defs><radialGradient id="gradient-2"><stop offset="0%" stop-color="#ffffff" stop-opacity="1"></stop><stop offset="100%" stop-color="#000000" stop-opacity="1"></stop></radialGradient><radialGradient id="gradient-3"><stop offset="0%" stop-color="#ffffff" stop-opacity="1"></stop><stop offset="100%" stop-color="#000000" stop-opacity="1"></stop></radialGradient><radialGradient id="gradient-4"><stop offset="0%" stop-color="#ffffff" stop-opacity="1"></stop><stop offset="100%" stop-color="#000000" stop-opacity="1"></stop></radialGradient><radialGradient id="gradient-5"><stop offset="0%" stop-color="#ffffff" stop-opacity="1"></stop><stop offset="100%" stop-color="#000000" stop-opacity="1"></stop></radialGradient><radialGradient id="gradient-6"><stop offset="0%" stop-color="#ffffff" stop-opacity="1"></stop><stop offset="100%" stop-color="#000000" stop-opacity="1"></stop></radialGradient><radialGradient id="gradient-7"><stop offset="0%" stop-color="#ffffff" stop-opacity="1"></stop><stop offset="100%" stop-color="#000000" stop-opacity="1"></stop></radialGradient><radialGradient id="gradient-8"><stop offset="0%" stop-color="#ffffff" stop-opacity="1"></stop><stop offset="100%" stop-color="#000000" stop-opacity="1"></stop></radialGradient><radialGradient id="gradient-9"><stop offset="0%" stop-color="#ffffff" stop-opacity="1"></stop><stop offset="100%" stop-color="#000000" stop-opacity="1"></stop></radialGradient><radialGradient id="gradient-10"><stop offset="0%" stop-color="#ffffff" stop-opacity="1"></stop><stop offset="100%" stop-color="#000000" stop-opacity="1"></stop></radialGradient></defs><circle cx="256" cy="256" r="256" fill="#292927" fill-opacity="1"></circle><g class="" style="touch-action: none;" transform="translate(-3,4)"><path d="M113.844 17.72c-8.426.04-16.812.833-25.094 2.436C195.65 84.503 275.473 170.516 338.47 270c2.526-53.76-19.07-109.13-53.533-154.25-14.097 5.298-31.477.742-43.468-11.25-11.98-11.98-16.558-29.347-11.282-43.438C194.46 34.105 153.68 17.52 113.844 17.72zm380.562 20.405L423.47 115.75l30.06 125.563-55.092 8.78-19.407 80.626 73.5 39.124-41.25 55.937 29.658 44.033-88.782-27.625 16.5-43.844L291.97 364.5l13.124-84.563-111.375 58.125-4.22 78.25-112.22-27.656-33.25 104.156h450.376V38.125zM261.156 58.72c-.388.01-.776.028-1.156.06-3.644.325-6.882 1.696-9.188 4-6.147 6.15-5.746 18.88 3.875 28.5 9.622 9.623 22.353 10.024 28.5 3.876 6.148-6.148 5.747-18.878-3.875-28.5-5.637-5.637-12.335-8.096-18.156-7.937zM196.5 127.593L25.28 298.874c4.273 11.926 11.027 21.05 25.25 25.626L221.97 153c-7.796-8.89-16.308-17.333-25.47-25.406zm158.78 11.625l9.314 84.686 27.437-84.687h-36.75zm-132.03 74.968l-20.156 35.937 92.687 7.375-72.53-43.313z" fill="#fff" fill-opacity="1" transform="translate(76.8, 76.8) scale(0.7, 0.7) rotate(0, 256, 256)"></path></g></svg>