<svg style="height: 512px; width: 512px;" xmlns="http://www.w3.org/2000/svg" viewBox="0 0 512 512"><defs><radialGradient id="gradient-2"><stop offset="0%" stop-color="#ffffff" stop-opacity="1"></stop><stop offset="100%" stop-color="#000000" stop-opacity="1"></stop></radialGradient><radialGradient id="gradient-3"><stop offset="0%" stop-color="#ffffff" stop-opacity="1"></stop><stop offset="100%" stop-color="#000000" stop-opacity="1"></stop></radialGradient><radialGradient id="gradient-4"><stop offset="0%" stop-color="#ffffff" stop-opacity="1"></stop><stop offset="100%" stop-color="#000000" stop-opacity="1"></stop></radialGradient><radialGradient id="gradient-5"><stop offset="0%" stop-color="#ffffff" stop-opacity="1"></stop><stop offset="100%" stop-color="#000000" stop-opacity="1"></stop></radialGradient><radialGradient id="gradient-6"><stop offset="0%" stop-color="#ffffff" stop-opacity="1"></stop><stop offset="100%" stop-color="#000000" stop-opacity="1"></stop></radialGradient><radialGradient id="gradient-7"><stop offset="0%" stop-color="#ffffff" stop-opacity="1"></stop><stop offset="100%" stop-color="#000000" stop-opacity="1"></stop></radialGradient><radialGradient id="gradient-8"><stop offset="0%" stop-color="#ffffff" stop-opacity="1"></stop><stop offset="100%" stop-color="#000000" stop-opacity="1"></stop></radialGradient><radialGradient id="gradient-9"><stop offset="0%" stop-color="#ffffff" stop-opacity="1"></stop><stop offset="100%" stop-color="#000000" stop-opacity="1"></stop></radialGradient><radialGradient id="gradient-10"><stop offset="0%" stop-color="#ffffff" stop-opacity="1"></stop><stop offset="100%" stop-color="#000000" stop-opacity="1"></stop></radialGradient></defs><rect fill="#292927" fill-opacity="1" height="512" width="512" rx="32" ry="32"></rect><g class="" style="touch-action: none;" transform="translate(-3,4)"><path d="M19.188 16.406V123.28l153.593 81.75-70.655-188.624H19.187zm109.812 0L248.125 161.22l5.25-144.814H129zm165.25 0l40.906 133.156 60.72-133.156H294.25zm140.188 0l-14.594 155.938 74.75-69.5V16.406h-60.156zM19.188 167.062v97.532l99.874 9.937L19.19 167.064zm409.406 40.313c-17.884-.094-38.853 9.07-55.938 26.156-5.305 5.307-9.826 10.998-13.562 16.845-93.737-56.476-329.936 76.333-179 189.78H60.78l-26.468 47.72H291.5L203 384.625c24.27-26.708 67.458-43.704 97-45.063 13.793 45.098 36.265 113.497 71.75 148.313h60.844c-43.07-46.547-76.538-109.09-81.938-179.844 1.616 3.237 3.72 6.19 6.313 8.783 18.662 18.663 55.944 11.648 83.28-15.688s34.35-64.618 15.688-83.28c-7-7-16.614-10.413-27.344-10.47zM19.188 323v59.563l77.687-23.938L19.187 323z" fill="#fff" fill-opacity="1" transform="translate(76.8, 76.8) scale(0.7, 0.7) rotate(0, 256, 256)"></path></g></svg>