<svg style="height: 512px; width: 512px;" xmlns="http://www.w3.org/2000/svg" viewBox="0 0 512 512"><defs><radialGradient id="gradient-2"><stop offset="0%" stop-color="#ffffff" stop-opacity="1"></stop><stop offset="100%" stop-color="#000000" stop-opacity="1"></stop></radialGradient><radialGradient id="gradient-3"><stop offset="0%" stop-color="#ffffff" stop-opacity="1"></stop><stop offset="100%" stop-color="#000000" stop-opacity="1"></stop></radialGradient><radialGradient id="gradient-4"><stop offset="0%" stop-color="#ffffff" stop-opacity="1"></stop><stop offset="100%" stop-color="#000000" stop-opacity="1"></stop></radialGradient><radialGradient id="gradient-5"><stop offset="0%" stop-color="#ffffff" stop-opacity="1"></stop><stop offset="100%" stop-color="#000000" stop-opacity="1"></stop></radialGradient><radialGradient id="gradient-6"><stop offset="0%" stop-color="#ffffff" stop-opacity="1"></stop><stop offset="100%" stop-color="#000000" stop-opacity="1"></stop></radialGradient><radialGradient id="gradient-7"><stop offset="0%" stop-color="#ffffff" stop-opacity="1"></stop><stop offset="100%" stop-color="#000000" stop-opacity="1"></stop></radialGradient><radialGradient id="gradient-8"><stop offset="0%" stop-color="#ffffff" stop-opacity="1"></stop><stop offset="100%" stop-color="#000000" stop-opacity="1"></stop></radialGradient><radialGradient id="gradient-9"><stop offset="0%" stop-color="#ffffff" stop-opacity="1"></stop><stop offset="100%" stop-color="#000000" stop-opacity="1"></stop></radialGradient><radialGradient id="gradient-10"><stop offset="0%" stop-color="#ffffff" stop-opacity="1"></stop><stop offset="100%" stop-color="#000000" stop-opacity="1"></stop></radialGradient></defs><circle cx="256" cy="256" r="256" fill="#292927" fill-opacity="1"></circle><g class="" style="touch-action: none;" transform="translate(-1,-43)"><path d="M112 144.836l-9 48V279h18v-86.164l-9-48zm36 0l-9 48V279h18v-86.164l-9-48zm216 0l-9 48V279h18v-86.164l-9-48zm36 0l-9 48V279h18v-86.164l-9-48zm-360 64l-9 48V279h18v-22.164l-9-48zm36 0l-9 48V279h18v-22.164l-9-48zm108 0l-9 48V279h18v-22.164l-9-48zm36 0l-9 48V279h18v-22.164l-9-48zm36 0l-9 48V279h18v-22.164l-9-48zm36 0l-9 48V279h18v-22.164l-9-48zm36 0l-9 48V279h18v-22.164l-9-48zm108 0l-9 48V279h18v-22.164l-9-48zm36 0l-9 48V279h18v-22.164l-9-48zM18 297v16h138.96v-16H18zm156.96 0v16h162.005v-16H174.96zm180.005 0v16H494v-16H354.965zM31 331v156h18V331H31zm36 0v156h18V331H67zm36 0v156h18V331h-18zm36 0v156h18V331h-18zm36 0v156h18V331h-18zm36 0v156h18V331h-18zm36 0v156h18V331h-18zm36 0v156h18V331h-18zm36 0v156h18V331h-18zm36 0v156h18V331h-18zm36 0v156h18V331h-18zm36 0v156h18V331h-18zm36 0v156h18V331h-18z" fill="#fff" fill-opacity="1" transform="translate(76.8, 76.8) scale(0.7, 0.7) rotate(0, 256, 256)"></path></g></svg>